<svg width="960" height="540" viewBox="0 0 960 540" fill="none" xmlns="http://www.w3.org/2000/svg">
  <rect width="960" height="540" rx="36" fill="#0E1420"/>
  <rect x="26" y="26" width="908" height="488" rx="28" fill="url(#bg)"/>
  <rect x="92" y="118" width="292" height="292" rx="26" fill="#1B3049" opacity="0.95"/>
  <path d="M150 348L222 276L276 308L344 202" stroke="#8FF5C6" stroke-width="16" stroke-linecap="round" stroke-linejoin="round"/>
  <circle cx="150" cy="348" r="16" fill="#F4F9FF"/>
  <circle cx="222" cy="276" r="16" fill="#F4F9FF"/>
  <circle cx="276" cy="308" r="16" fill="#F4F9FF"/>
  <circle cx="344" cy="202" r="16" fill="#F4F9FF"/>
  <rect x="486" y="144" width="300" height="34" rx="17" fill="#F5F9FF" opacity="0.92"/>
  <rect x="486" y="206" width="248" height="18" rx="9" fill="#B4C9FF" opacity="0.85"/>
  <rect x="486" y="238" width="280" height="18" rx="9" fill="#B4C9FF" opacity="0.65"/>
  <rect x="486" y="270" width="194" height="18" rx="9" fill="#B4C9FF" opacity="0.5"/>
  <rect x="486" y="328" width="212" height="56" rx="18" fill="#1A2232"/>
  <text x="94" y="98" fill="#F7FBFF" font-family="Arial, sans-serif" font-size="42" font-weight="700">AERR-Nav</text>
  <text x="94" y="438" fill="#C5D2E3" font-family="Arial, sans-serif" font-size="22">Zero-shot multi-floor navigation</text>
  <text x="516" y="362" fill="#E5ECFF" font-family="Arial, sans-serif" font-size="20">Unknown floor transfer</text>
  <defs>
    <linearGradient id="bg" x1="54" y1="38" x2="900" y2="496" gradientUnits="userSpaceOnUse">
      <stop stop-color="#16263A"/>
      <stop offset="1" stop-color="#365B8C"/>
    </linearGradient>
  </defs>
</svg>
