<svg width="960" height="540" viewBox="0 0 960 540" fill="none" xmlns="http://www.w3.org/2000/svg">
  <rect width="960" height="540" rx="36" fill="#0E1015"/>
  <rect x="26" y="26" width="908" height="488" rx="28" fill="url(#bg)"/>
  <g opacity="0.88">
    <rect x="118" y="302" width="58" height="58" fill="#C8F0FF"/>
    <rect x="176" y="270" width="58" height="90" fill="#89D8FF"/>
    <rect x="234" y="236" width="58" height="124" fill="#4FC0FF"/>
    <rect x="292" y="198" width="58" height="162" fill="#12A2E0"/>
    <rect x="350" y="246" width="58" height="114" fill="#7AE1C3"/>
  </g>
  <path d="M108 376H420" stroke="#EDF9FF" stroke-width="8" stroke-linecap="round"/>
  <rect x="506" y="130" width="300" height="34" rx="17" fill="#F8FCFF" opacity="0.92"/>
  <rect x="506" y="192" width="258" height="18" rx="9" fill="#BFE2FF" opacity="0.86"/>
  <rect x="506" y="224" width="280" height="18" rx="9" fill="#BFE2FF" opacity="0.66"/>
  <rect x="506" y="256" width="184" height="18" rx="9" fill="#BFE2FF" opacity="0.48"/>
  <rect x="506" y="320" width="222" height="56" rx="18" fill="#13283A"/>
  <text x="96" y="102" fill="#F7FBFF" font-family="Arial, sans-serif" font-size="40" font-weight="700">OccProphet</text>
  <text x="96" y="144" fill="#BFD0DA" font-family="Arial, sans-serif" font-size="22">Camera-only 4D occupancy forecasting</text>
  <text x="536" y="354" fill="#E4F7FF" font-family="Arial, sans-serif" font-size="20">Efficient observer-forecaster flow</text>
  <defs>
    <linearGradient id="bg" x1="60" y1="40" x2="900" y2="494" gradientUnits="userSpaceOnUse">
      <stop stop-color="#152433"/>
      <stop offset="1" stop-color="#13647F"/>
    </linearGradient>
  </defs>
</svg>
